<?xml version="1.0" encoding="UTF-8" standalone="no"?>
<!-- Created with Inkscape (http://www.inkscape.org/) -->

<svg
   width="96.187172mm"
   height="12.5349mm"
   viewBox="0 0 96.187172 12.5349"
   version="1.1"
   id="svg5"
   xmlns="http://www.w3.org/2000/svg"
   xmlns:svg="http://www.w3.org/2000/svg">
   <defs
      id="defs2" />
   <g
      id="layer1"
      transform="translate(-30.383869,-122.42576)">
      <g
         aria-label="{ OK Lab Flensburg }"
         id="text1515"
         style="font-size:10.5833px;line-height:1.25;stroke-width:0.264583">
         <path
            d="m 32.568269,134.96066 q -0.6731,0 -1.0287,-0.4445 -0.3556,-0.4318 -0.3556,-1.2319 v -3.1242 q 0,-0.3556 -0.1143,-0.5715 -0.1016,-0.2159 -0.2794,-0.3302 -0.1778,-0.1143 -0.4064,-0.127 v -0.8763 q 0.2286,-0.0381 0.4064,-0.1397 0.1778,-0.1143 0.2794,-0.3302 0.1143,-0.2159 0.1143,-0.5588 v -3.1242 q 0,-0.8128 0.3556,-1.2446 0.3556,-0.4318 1.0287,-0.4318 h 0.8636 v 0.8001 h -0.4572 q -0.4064,0 -0.5715,0.254 -0.1524,0.254 -0.1524,0.635 v 3.1369 q 0,0.5969 -0.2286,0.9144 -0.2286,0.3048 -0.6223,0.4826 v 0.0889 q 0.3937,0.1651 0.6223,0.4826 0.2286,0.3175 0.2286,0.9017 v 3.1496 q 0,0.381 0.1524,0.635 0.1651,0.254 0.5715,0.254 h 0.4572 v 0.8001 z"
            style="font-size:12.7px;fill:#0069f6"
            id="path57024" />
         <path
            d="m 40.222092,131.96134 q -1.02658,0 -1.809744,-0.47624 -0.772581,-0.47625 -1.206496,-1.3335 -0.433915,-0.86783 -0.433915,-2.01083 0,-1.15358 0.433915,-2.01082 0.433915,-0.86783 1.206496,-1.34408 0.783164,-0.47625 1.809744,-0.47625 1.047747,0 1.830911,0.47625 0.783164,0.47625 1.21708,1.34408 0.433915,0.85724 0.433915,2.01082 0,1.143 -0.444499,2.01083 -0.433915,0.85725 -1.217079,1.3335 -0.783164,0.47624 -1.820328,0.47624 z m 0,-1.02658 q 0.740831,0 1.269996,-0.33866 0.529165,-0.34925 0.825498,-0.97367 0.296332,-0.63499 0.296332,-1.48166 0,-0.85724 -0.296332,-1.48166 -0.296333,-0.635 -0.825498,-0.97366 -0.529165,-0.34925 -1.269996,-0.34925 -0.719664,0 -1.259412,0.33866 -0.529165,0.33867 -0.825498,0.97367 -0.285749,0.62441 -0.285749,1.49224 0,0.85725 0.285749,1.49225 0.296333,0.62441 0.825498,0.96308 0.539748,0.33866 1.259412,0.33866 z"
            style="fill:#ffffff"
            id="path57026" />
         <path
            d="m 45.841816,129.5166 v -1.36524 l 3.534822,-3.70416 h 1.439329 z m -0.846664,2.30716 v -7.37656 h 1.079497 v 7.37656 z m 4.582569,0 -2.455326,-3.88407 0.804331,-0.75141 2.910407,4.63548 z"
            style="fill:#ffffff"
            id="path57028" />
         <path
            d="m 54.562426,131.82376 v -7.37656 h 1.079497 v 6.41348 h 3.249073 v 0.96308 z"
            style="fill:#ffffff"
            id="path57030" />
         <path
            d="m 63.166641,131.82376 -0.08467,-0.96308 v -2.31774 q 0,-0.55033 -0.317499,-0.84667 -0.317499,-0.29633 -0.920748,-0.29633 -0.423332,0 -0.814914,0.16933 -0.380998,0.16934 -0.730247,0.55034 l -0.645582,-0.66675 q 0.465666,-0.48683 1.02658,-0.70908 0.571499,-0.23284 1.238247,-0.23284 1.047746,0 1.619244,0.53975 0.582082,0.52917 0.582082,1.49225 v 3.28082 z m -1.682745,0.0952 q -0.582081,0 -1.02658,-0.21167 -0.444498,-0.21166 -0.687914,-0.58208 -0.243416,-0.381 -0.243416,-0.87841 0,-0.43392 0.179916,-0.74083 0.179916,-0.3175 0.465665,-0.48683 0.264583,-0.16934 0.603248,-0.23284 0.349249,-0.0741 0.740831,-0.0741 h 1.661578 v 0.78317 h -1.513412 q -0.211666,0 -0.444498,0.0423 -0.22225,0.0318 -0.380999,0.14816 -0.127,0.0952 -0.201083,0.24342 -0.07408,0.13758 -0.07408,0.32808 0,0.37042 0.285749,0.59267 0.285749,0.22225 0.761998,0.22225 0.402165,0 0.730248,-0.17992 0.338665,-0.1905 0.539748,-0.508 0.201083,-0.32808 0.201083,-0.74083 l 0.370415,0.48683 q -0.09525,0.55033 -0.370415,0.96308 -0.275166,0.40217 -0.687915,0.61383 -0.402165,0.21167 -0.910164,0.21167 z"
            style="fill:#ffffff"
            id="path57032" />
         <path
            d="m 68.14079,131.91901 q -0.465665,0 -0.857247,-0.17992 -0.380999,-0.19049 -0.656165,-0.53974 -0.264582,-0.35984 -0.402165,-0.86783 l 0.306916,-0.0106 v 1.50283 h -1.037164 v -7.37656 h 1.037164 v 3.66182 l -0.264583,-0.0635 q 0.105833,-0.45508 0.370416,-0.79374 0.264582,-0.34925 0.645581,-0.53975 0.391582,-0.20109 0.857247,-0.20109 0.645582,0 1.174747,0.32809 0.529165,0.32808 0.83608,0.93133 0.306916,0.60325 0.306916,1.43933 0,0.76199 -0.285749,1.38641 -0.285749,0.61383 -0.814914,0.97366 -0.518582,0.34925 -1.21708,0.34925 z m -0.222249,-0.9525 q 0.455082,0 0.783164,-0.22225 0.338666,-0.22224 0.529165,-0.61383 0.1905,-0.40216 0.1905,-0.92074 0,-0.51859 -0.1905,-0.91017 -0.190499,-0.40216 -0.529165,-0.61383 -0.328082,-0.22225 -0.783164,-0.22225 -0.444499,0 -0.783164,0.22225 -0.328082,0.21167 -0.518582,0.61383 -0.179916,0.39158 -0.179916,0.91017 0,0.51858 0.179916,0.92074 0.1905,0.39159 0.518582,0.61383 0.338665,0.22225 0.783164,0.22225 z"
            style="fill:#ffffff"
            id="path57034" />
         <path
            d="m 74.490733,131.82376 v -7.37656 h 4.868318 v 0.96308 h -3.788822 v 2.15899 h 3.291406 v 0.96308 h -3.291406 v 3.29141 z"
            style="fill:#ffffff"
            id="path57036" />
         <path
            d="m 81.486293,131.91901 q -0.497415,0 -0.814914,-0.30692 -0.317499,-0.30691 -0.317499,-0.97366 v -6.19123 h 1.02658 v 5.99015 q 0,0.27516 0.116416,0.40216 0.127,0.11642 0.328083,0.11642 0.08467,0 0.190499,-0.0106 0.116416,-0.0212 0.232833,-0.0635 v 0.87841 q -0.1905,0.0847 -0.402166,0.11642 -0.201083,0.0423 -0.359832,0.0423 z"
            style="fill:#ffffff"
            id="path57038" />
         <path
            d="m 85.465603,131.91901 q -0.634998,0 -1.100663,-0.21167 -0.465665,-0.21166 -0.772581,-0.58208 -0.306916,-0.381 -0.465665,-0.85724 -0.148166,-0.48684 -0.148166,-1.016 0,-0.52917 0.148166,-1.016 0.148166,-0.49741 0.444499,-0.87841 0.296332,-0.39158 0.740831,-0.61383 0.455081,-0.23284 1.068913,-0.23284 0.613831,0 1.05833,0.21167 0.444498,0.20108 0.730247,0.5715 0.28575,0.35983 0.423332,0.81491 0.148167,0.45508 0.148167,0.96308 0,0.0529 -0.01058,0.20109 0,0.13758 -0.02117,0.26458 h -3.693572 q 0.03175,0.6985 0.423332,1.07949 0.402166,0.37042 1.05833,0.37042 0.444499,0 0.793748,-0.13758 0.349248,-0.14817 0.645581,-0.45508 l 0.634998,0.65616 q -0.306916,0.30692 -0.634998,0.49742 -0.317499,0.19049 -0.677331,0.27516 -0.349249,0.0952 -0.793748,0.0952 z m 1.24883,-2.89982 q 0.02117,-0.0847 0.02117,-0.16934 0.01058,-0.0847 0.01058,-0.16933 0,-0.24341 -0.08467,-0.47625 -0.08467,-0.23283 -0.253999,-0.41275 -0.169333,-0.1905 -0.423332,-0.29633 -0.243416,-0.11641 -0.571498,-0.11641 -0.433916,0 -0.740831,0.20108 -0.306916,0.1905 -0.476249,0.508 -0.158749,0.3175 -0.190499,0.68791 h 3.04799 z"
            style="fill:#ffffff"
            id="path57040" />
         <path
            d="m 88.936913,131.82376 v -5.21757 h 1.047747 v 1.13242 l -0.211666,0.0635 q 0.137583,-0.43392 0.391582,-0.70908 0.264583,-0.28575 0.613831,-0.43392 0.359833,-0.14817 0.772581,-0.14817 0.867831,0 1.354663,0.508 0.497415,0.49742 0.497415,1.4605 v 3.34432 h -1.037164 v -2.96332 q 0,-0.75142 -0.275165,-1.10067 -0.264583,-0.34924 -0.825498,-0.34924 -0.423332,0 -0.709081,0.19049 -0.275166,0.1905 -0.423332,0.60325 -0.148166,0.41275 -0.148166,1.04775 v 2.57174 z"
            style="fill:#ffffff"
            id="path57042" />
         <path
            d="m 96.546303,131.91901 q -0.550332,0 -0.973664,-0.15875 -0.423332,-0.16933 -0.730247,-0.42333 -0.296333,-0.26458 -0.476249,-0.53975 l 0.709081,-0.61383 q 0.201083,0.35983 0.571499,0.62441 0.380998,0.254 0.910163,0.254 0.465665,0 0.730248,-0.1905 0.275166,-0.20108 0.275166,-0.51858 0,-0.254 -0.169333,-0.40216 -0.169333,-0.15875 -0.444499,-0.254 -0.275165,-0.10584 -0.603248,-0.17992 -0.296332,-0.0847 -0.603248,-0.1905 -0.306915,-0.10583 -0.560915,-0.26458 -0.243416,-0.16933 -0.402165,-0.42333 -0.148166,-0.26458 -0.148166,-0.64558 0,-0.66675 0.507998,-1.06892 0.518582,-0.41275 1.365246,-0.41275 0.603248,0 1.100663,0.254 0.497415,0.24342 0.772581,0.73025 l -0.645581,0.49742 q -0.211666,-0.34925 -0.550332,-0.508 -0.328082,-0.15875 -0.719664,-0.15875 -0.370416,0 -0.624415,0.15875 -0.243416,0.14816 -0.243416,0.41275 0,0.1905 0.105833,0.3175 0.116416,0.11641 0.349249,0.21166 0.243416,0.0847 0.592665,0.16933 0.328082,0.0741 0.666748,0.17992 0.338665,0.10583 0.624414,0.27517 0.285749,0.16933 0.465665,0.45508 0.179917,0.28575 0.179917,0.74083 0,0.49741 -0.254,0.87841 -0.253999,0.37042 -0.709081,0.58208 -0.455082,0.21167 -1.068913,0.21167 z"
            style="fill:#ffffff"
            id="path57044" />
         <path
            d="m 102.42002,131.91901 q -0.46566,0 -0.85724,-0.17992 -0.381,-0.19049 -0.65617,-0.53974 -0.26458,-0.35984 -0.40216,-0.86783 l 0.30691,-0.0106 v 1.50283 h -1.037163 v -7.37656 h 1.037163 v 3.66182 l -0.26458,-0.0635 q 0.10583,-0.45508 0.37041,-0.79374 0.26459,-0.34925 0.64559,-0.53975 0.39158,-0.20109 0.85724,-0.20109 0.64558,0 1.17475,0.32809 0.52916,0.32808 0.83608,0.93133 0.30691,0.60325 0.30691,1.43933 0,0.76199 -0.28574,1.38641 -0.28575,0.61383 -0.81492,0.97366 -0.51858,0.34925 -1.21708,0.34925 z m -0.22225,-0.9525 q 0.45508,0 0.78317,-0.22225 0.33866,-0.22224 0.52916,-0.61383 0.1905,-0.40216 0.1905,-0.92074 0,-0.51859 -0.1905,-0.91017 -0.1905,-0.40216 -0.52916,-0.61383 -0.32809,-0.22225 -0.78317,-0.22225 -0.4445,0 -0.78316,0.22225 -0.32808,0.21167 -0.51858,0.61383 -0.17992,0.39158 -0.17992,0.91017 0,0.51858 0.17992,0.92074 0.1905,0.39159 0.51858,0.61383 0.33866,0.22225 0.78316,0.22225 z"
            style="fill:#ffffff"
            id="path57046" />
         <path
            d="m 107.73282,131.91901 q -0.58208,0 -1.00541,-0.23283 -0.41275,-0.24342 -0.635,-0.68792 -0.21167,-0.45508 -0.21167,-1.10066 v -3.29141 h 1.03716 v 2.96333 q 0,0.46566 0.11642,0.79375 0.11642,0.31749 0.35983,0.48683 0.254,0.15875 0.635,0.15875 0.4445,0 0.71967,-0.22225 0.28574,-0.22225 0.42333,-0.65617 0.13758,-0.4445 0.13758,-1.10066 v -2.42358 h 1.02658 v 5.21757 h -1.02658 v -1.12183 l 0.21167,0.0423 q -0.23284,0.58209 -0.70908,0.87842 -0.47625,0.29633 -1.0795,0.29633 z"
            style="fill:#ffffff"
            id="path57048" />
         <path
            d="m 111.7968,131.82376 v -5.21757 h 1.04775 v 1.40758 l -0.22225,0.0423 q 0.0529,-0.46567 0.3175,-0.80433 0.27517,-0.34925 0.64558,-0.53975 0.37042,-0.20109 0.73025,-0.20109 0.254,0 0.47625,0.0635 0.23283,0.0529 0.46566,0.1905 l -0.508,0.93133 q -0.11641,-0.0635 -0.29633,-0.10583 -0.17991,-0.0423 -0.33866,-0.0423 -0.24342,0 -0.47625,0.0847 -0.23284,0.0847 -0.42333,0.27517 -0.17992,0.1905 -0.27517,0.49742 -0.0423,0.14816 -0.0741,0.39158 -0.0212,0.23283 -0.0212,0.64558 v 2.38124 z"
            style="fill:#ffffff"
            id="path57050" />
         <path
            d="m 118.06845,134.078 q -1.13241,0 -1.79916,-0.41274 -0.65617,-0.41275 -0.65617,-1.143 0,-0.0529 0,-0.13758 0.0106,-0.0847 0.0318,-0.16934 l 1.35467,-0.93133 0.3175,0.26459 -0.71967,0.88899 q -0.0106,0.0423 -0.0106,0.0635 0,0.0317 0,0.0635 0,0.381 0.42333,0.5715 0.42333,0.1905 1.05833,0.1905 0.56091,0 0.91016,-0.15875 0.34925,-0.14817 0.34925,-0.48683 0,-0.17992 -0.10583,-0.29633 -0.10583,-0.11642 -0.3175,-0.1905 -0.21167,-0.0635 -0.508,-0.11642 -0.28575,-0.0423 -0.66675,-0.0953 -0.48683,-0.0741 -0.94191,-0.21167 -0.45508,-0.13758 -0.75141,-0.40216 -0.29634,-0.27517 -0.29634,-0.71967 0,-0.38099 0.26459,-0.69849 0.27516,-0.32809 0.70908,-0.52917 l 0.59266,0.41275 q -0.32808,0.0741 -0.47625,0.24342 -0.14816,0.15875 -0.14816,0.39158 0,0.1905 0.13758,0.30691 0.14817,0.11642 0.41275,0.17992 0.26458,0.0635 0.635,0.11642 0.51858,0.0741 0.96308,0.15875 0.45508,0.0847 0.79374,0.24341 0.34925,0.14817 0.52917,0.40217 0.1905,0.26458 0.1905,0.67733 0,0.74083 -0.60325,1.13241 -0.59266,0.39158 -1.67216,0.39158 z m -0.11642,-3.83115 q -0.62441,0 -1.10066,-0.23283 -0.46567,-0.24342 -0.73025,-0.65617 -0.26458,-0.42333 -0.26458,-0.96308 0,-0.56091 0.27517,-0.98424 0.27516,-0.42334 0.74083,-0.65617 0.47625,-0.24342 1.04774,-0.24342 0.55033,0 1.016,0.24342 0.47625,0.23283 0.75141,0.66675 0.28575,0.43391 0.28575,1.016 0,0.55033 -0.26458,0.96308 -0.254,0.40216 -0.70908,0.62441 -0.45508,0.22225 -1.04775,0.22225 z m -0.0212,-0.8255 q 0.48683,0 0.75141,-0.29633 0.26458,-0.30692 0.26458,-0.74083 0,-0.46567 -0.28575,-0.74083 -0.27516,-0.28575 -0.73024,-0.28575 -0.47625,0 -0.762,0.28575 -0.28575,0.28575 -0.28575,0.73025 0,0.44449 0.27517,0.75141 0.27516,0.29633 0.77258,0.29633 z m 1.70391,-1.79916 -0.75142,-0.49741 1.143,-0.92075 0.51858,0.64558 z"
            style="fill:#ffffff"
            id="path57052" />
         <path
            d="m 124.38664,134.96066 h -0.8509 v -0.8001 h 0.4445 q 0.4191,0 0.5715,-0.254 0.1651,-0.254 0.1651,-0.635 v -3.1496 q 0,-0.5842 0.2159,-0.9017 0.2286,-0.3175 0.635,-0.4826 v -0.0889 q -0.4064,-0.1778 -0.635,-0.4826 -0.2159,-0.3175 -0.2159,-0.9144 v -3.1369 q 0,-0.381 -0.1651,-0.635 -0.1524,-0.254 -0.5715,-0.254 h -0.4445 v -0.8001 h 0.8509 q 0.6731,0 1.0287,0.4318 0.3683,0.4318 0.3683,1.2446 v 3.1242 q 0,0.3429 0.1016,0.5588 0.1143,0.2159 0.2921,0.3302 0.1778,0.1016 0.3937,0.1397 v 0.8763 q -0.2159,0.0127 -0.3937,0.127 -0.1778,0.1143 -0.2921,0.3302 -0.1016,0.2159 -0.1016,0.5715 v 3.1242 q 0,0.8001 -0.3683,1.2319 -0.3556,0.4445 -1.0287,0.4445 z"
            style="font-size:12.7px;fill:#0069f6"
            id="path57054" />
      </g>
   </g>
</svg>